# xmcd
#
# Track frame offsets: 
#        150
#        16462
#        30960
#        44634
#        59319
#        75669
#        94874
#        112250
#        124908
#        142478
#        157478
#
# Disc length: 2350 seconds
#
# Revision: 0
# Processed by: cddbd v1.5.2PL0 Copyright (c) Steve Scherf et al.
# Submitted via: ExactAudioCopy v0.99pb3
#
DISCID=a3092c0b
DTITLE=Little Anthony and The Imperials - On A New Street
DYEAR=1973
DGENRE=R&B
TTITLE0=That's What Love Is All About
TTITLE1=What Good Am I Without You
TTITLE2=Sooner Or Later
TTITLE3=Loving You Won't Hurt As Much Tomorrow
TTITLE4=Heartaches Never Entered My Mind
TTITLE5=Easier Said Than Done
TTITLE6=I'm Falling In Love With You
TTITLE7=Lazy Susan
TTITLE8=The Loneliest House On The Block
TTITLE9=I Don't Have Time To Worry
TTITLE10=La La La At The End
EXTD=
EXTT0=
EXTT1=
EXTT2=
EXTT3=
EXTT4=
EXTT5=
EXTT6=
EXTT7=
EXTT8=
EXTT9=
EXTT10=
PLAYORDER=
